<?xml version="1.0" encoding="iso-8859-1"?>
<!-- Uploaded to: SVG Repo, www.svgrepo.com, Generator: SVG Repo Mixer Tools -->
<svg fill="#000000" height="800px" width="800px" version="1.1" id="Capa_1" xmlns="http://www.w3.org/2000/svg" xmlns:xlink="http://www.w3.org/1999/xlink" 
	 viewBox="0 0 490 490" xml:space="preserve">
<g>
	<g>
		<path d="M52.5,42.8h375.3V0H0v427.8h42.8V52.5C42.8,47.1,47.1,42.8,52.5,42.8z"/>
		<g>
			<path d="M237.1,246h-9.4v22.6h9.4c7.5,0,13.6-5.1,13.6-11.3C250.6,251.1,244.5,246,237.1,246z"/>
			<polygon points="123.3,283.4 144.8,283.4 134,260 			"/>
			<path d="M333.6,246h-9.4v22.6h9.4c7.5,0,13.6-5.1,13.6-11.3C347.2,251.1,341.1,246,333.6,246z"/>
			<path d="M62.2,62.2V490H490V62.2H62.2z M171.5,320.2c-1.1,0.3-7.7,2.9-11.7-4.3l-8.1-17.5h-35.4l-8.1,17.5
				c-1.8,3.9-7,5.8-11.7,4.3s-7-5.8-5.2-9.7l34.2-74.2c1.3-2.9,4.7-4.8,8.5-4.8c3.7,0,7.1,1.9,8.5,4.8l34.2,74.2
				C178.5,314.4,176.2,318.8,171.5,320.2z M237.1,283.6h-9.4v30.1c0,4.2-4.1,7.5-9.1,7.5s-9.1-3.4-9.1-7.5v-75.3
				c0-4.2,4.1-7.5,9.1-7.5H237c17.5,0,31.7,11.8,31.7,26.3C268.7,271.8,254.5,283.6,237.1,283.6z M333.6,283.6h-9.4v30.1
				c0,4.2-4.1,7.5-9.1,7.5s-9.1-3.4-9.1-7.5v-75.3c0-4.2,4.1-7.5,9.1-7.5h18.4c17.5,0,31.7,11.8,31.7,26.3
				C365.3,271.8,351.1,283.6,333.6,283.6z M429.8,321.3c-8.7,0-17.1-3-23.1-8.3c-3.4-3-3.3-7.8,0.4-10.6c3.6-2.9,9.4-2.7,12.8,0.3
				c2.6,2.3,6.1,3.6,9.9,3.6c7.5,0,13.6-5.1,13.6-11.3c0-6.2-6.1-11.3-13.6-11.3l0,0c-17.5,0-31.7-11.8-31.7-26.3
				s14.2-26.3,31.7-26.3c8.7,0,17.1,3,23.1,8.3c3.4,3,3.3,7.8-0.4,10.6c-3.6,2.9-9.4,2.7-12.8-0.3c-2.6-2.3-6.1-3.6-9.9-3.6
				c-7.5,0-13.6,5.1-13.6,11.3c0,6.2,6.1,11.3,13.6,11.3l0,0c17.5,0,31.7,11.8,31.7,26.3S447.3,321.3,429.8,321.3z"/>
		</g>
	</g>
</g>
</svg>